<svg xmlns="http://www.w3.org/2000/svg" width="2000" height="2000" viewBox="0 0 2000 2000">
  <defs>
    <style>
      .cls-1 {
        fill: #fff;
        fill-rule: evenodd;
      }
    </style>
  </defs>
  <path id="Color_Fill_5" data-name="Color Fill 5" class="cls-1" d="M1339.17,361.591c49.95-.745,84.66,2.911,105.03,30.633,9.42,12.818,7.05,22.739,21.88,30.632,5.67-10.421,10.55-20.781,21.88-26.256v8.752c48.75,60.852-33.72,160.92-52.51,188.172h-8.75c-2.76-7.676-.85-4.251-4.38-8.752v-8.753c43.73-14.681,58.2-65.85,56.89-126.906h-4.37v4.376c-9.94,9.534-10.98,16.5-26.26,21.88,1.51-38.9-6.95-65.2-35.01-74.393-51.78-41.807-118.76,26.229-144.42,43.761v-8.753c9.33-9.992,9.33-23.017,17.5-35.008C1298.85,383.062,1322.57,375.466,1339.17,361.591ZM564.551,379.1a560.179,560.179,0,0,1,74.4,4.376c21.834,27.946,46.98,36.087,56.893,78.769h-4.376c-23.894-36.8-64.133-53.415-126.915-52.513-10.489,10.452-48.14,43.761-48.14,43.761-6.541-7.108-6.791-8.855-8.753-21.88C526.189,414.332,546.287,396.943,564.551,379.1ZM1098.47,414.1q21.87-2.187,43.76-4.376c-0.55,30.762,8.21,45.263,30.64,52.513,18.41,14.331,43.69,9.058,70.02,17.5,26.49,8.5,61.16,23.52,83.15,39.384,76.11,54.912,56.21,146.071,96.28,231.933h-17.51c-5.94-5.521-7.74-5.975-17.5-8.752v4.376c36.56,24.914,63.07,81.887,74.4,131.282h-4.38c-13.84-21.155-40.53-34.021-74.4-35.008v4.376h4.38c34.26,36.042,60.6,64.24,61.27,135.659h-4.38c-12.3-12.884-21.78-17.573-48.14-17.5,1.87,46.919.38,84.039-8.75,122.529h-4.38c-17.37-27.05-45.67-27.66-91.9-26.26-3.74-6.38-7.93-12.54-13.13-17.5v-8.75h8.75c5.67,3.84,10.8,3.91,21.88,4.37v-8.75c-38.23-25.22-41.72-74.23-52.51-126.9q-15.315-10.94-30.64-21.88c-67.34-2.019-196.77,33.033-227.568,65.641-55.557-14.73-185.243-29-236.324-17.5-20.172,33.412-34.6,87.427-52.517,122.527,15.668,1.83,11.012-2.06,17.506,8.75-15.676,15.61-15.183,25.77-48.14,26.26-15.471-15.26-35.46-25.72-65.646-26.26-9.482,9.26-24.026,19.15-35.011,26.26-7.4-47.37-6.736-92.521,0-140.033-29.721,3.921-41.531,21.677-61.269,35.009v-56.89q15.317-30.629,30.635-61.265H533.917c-8.2,6.617-21.8,12.421-30.635,17.5V860.465c14.6-18.855,17.787-44.972,30.635-65.641,11.784-18.959,31.362-34.05,43.763-52.513h-8.752c-8.4,7.756-13.726,8.295-30.635,8.752v-4.376c37.222-29.3,25.908-122.549,52.516-161.915,20.136-29.79,71.23-59.406,109.41-70.018l48.14-4.376c25.127-11.078,46.669-40.491,74.4-52.513,31.872-13.818,72.815-13.345,100.656-30.632,18.284-11.353,30.344-31.4,52.517-39.385v4.376c13.318,13.887,7.145,28.779,0,43.76h21.882c11.208-8.919,26.578-9.519,39.388-17.5,17.94-11.181,26.39-31.489,48.14-39.384v4.376C1093.56,391.893,1096.34,398.892,1098.47,414.1ZM481.4,409.728c3.29,4.695,2.632,4.138,4.377,13.128h-8.753Q479.211,416.294,481.4,409.728Zm-39.387,21.881c15.2-.575,35.152-1.463,43.764,4.375,11.747,3.9,11.331,4.5,17.5,13.129h4.376v4.376h-8.752c-11.695-8.071-31.131-2.906-43.764,0-9.385,15.9-18.464,53.44-30.635,65.641v-4.376c-5.95-4.354-7.9-8.44-13.128-13.128a219.225,219.225,0,0,1,4.376-48.137Zm43.764,61.265H468.271V470.993c12.278-6.621,21.724-8.942,43.764-8.752,2.853,8.205,4.166,17.122,4.376,30.633h-8.753c-4.727-7.91-11.239-19.112-17.5-26.257v4.376C486.313,476.66,486.239,481.788,485.777,492.874Zm-26.259,8.752c20.144-.03,27.18,3.12,39.388,8.752v4.376c-35.819-.72-45.112,11.8-43.764,48.137,5.214,3.8,4.922,3.6,8.753,8.752h-8.753c-11-16.393-17.395-17.79-17.5-48.137,3.519-4.468,1.553-1.2,4.376-8.752C448.4,511.018,454.561,506.826,459.518,501.626Zm26.259,21.88c13.032,11.193,11.945,29.1,21.881,43.761,11.042,16.292,31.524,18.525,39.388,39.385-2.985,3.375-5.738,9.766-8.753,13.128C520.136,593.363,475.044,563.513,485.777,523.506Zm389.5,354.463c0.395-45.107-6.712-78.163-8.752-118.154,23.762-15.415,64.7-60.013,74.4-87.522-41.435-.9-76.907-13.7-113.786-21.88l-61.269-96.274h-4.376c-7.66,26.522-36.219,80.162-56.893,96.274-23.172,17.4-79.52,24.13-109.409,30.633V689.8c12.118,7.707,69.536,63.415,74.4,74.393v61.265c-7.2,10.838-4.916,38.951-4.376,56.89h8.752c9.532-7.879,90.258-47.4,105.033-43.761C810.575,846.353,838.044,871.761,875.273,877.969Zm446.387,4.377c-5.24-37.889-16.46-78.607-17.5-122.531,24.57-15.935,64.32-58.779,74.4-87.522-41.09-.9-76.66-13.662-113.79-21.88q-30.63-48.132-61.27-96.274h-4.38c-7.65,26.522-36.21,80.162-56.89,96.274-24.95,17.338-77.91,23.754-109.41,30.633V689.8c39.06,24.82,75.63,63.938,74.4,131.282-7.65,11.567-4.93,42.425-4.38,61.266h8.76c9.24-7.6,91.25-47.134,105.03-43.761C1252.32,847.322,1279.4,878.772,1321.66,882.346Zm-573.3-210.053c39.941-1.664,65.055,6.523,74.4,35.009,8.356,10.4,9,24.013,8.753,43.761-23.755,25.661-27.191,48.2-78.775,48.137-14.925-13.46-31.692-13.245-39.387-35.009-15.277-18.587-5.382-44.966,0-65.641A306.209,306.209,0,0,0,748.359,672.293Zm437.641,0c39.94-1.664,65.05,6.523,74.39,35.009,8.36,10.4,9,24.013,8.76,43.761-16.22,16.687-31.46,31.915-48.14,48.137-36,1.157-61.42-9.035-70.03-35.009-15.27-18.587-5.38-44.966,0-65.641A306.215,306.215,0,0,0,1186,672.293Zm-236.328,183.8c-6.709,10.782-10.028,9.958-13.129,26.257,13.084,12.2,27.172,26.312,39.387,39.384h30.63c17.44-17.853,38.91-25.88,43.77-56.889-5.22-3.8-4.92-3.6-8.75-8.752H949.672Zm56.888,297.571c-97.307,2.91-228.379-8.47-236.319-87.52-10.874-16.66-.485-82.817,4.376-105.025,7.729-4.207,7.354-5.5,17.5-8.752,31.608-17.16,147.072,22.414,205.69,8.752,67.528-15.74,136.748-47.594,210.068-48.137,53.62,78.661,40.68,136.822-17.51,196.922-7.67-2.76-4.25-.84-8.75-4.37-12.17-9.2-25.42-28.14-30.64-43.77,43.18-19.02,61.76-56.16,48.14-118.149-7.72-4.208-7.35-5.5-17.5-8.753-20.37-12.887-53.09,1.422-70.02,8.753-24.85,10.758-58.82,27.771-87.53,35.008-75.52,19.04-157.729-16.768-218.819-4.376-13.989,21.607-22.2,30.657-21.881,70.017,15.557,9.17,34.225,24.35,52.516,30.63C901.644,1097.48,995.154,1078.26,1006.56,1153.66Zm140.05-205.673h17.5c5.7,10.58,7.89,12.4,8.76,30.632-42.31,27.961-76.19,43.091-140.05,56.891-19.69,4.25-22.3-11.14-35.008-8.75-16.169,3.03-76.315,21.26-105.033,8.75q-2.188-6.57-4.377-13.13c-8.069-3.15-46.089,17.87-74.4-4.38-3.839-5.66-3.914-10.79-4.376-21.876,12.91-6.951,25.037-9.082,48.14-8.752,50.078,45.988,213.482-6.575,249.452-21.881C1124.09,958.31,1136.07,960.6,1146.61,947.987ZM551.422,1254.31q-2.189,13.125-4.376,26.26h-8.753c-6.91-10.98-12.519-17.22-26.258-21.88-3.624,14.2,2.145,6.69-8.753,13.13-24.6-22.79-66.724-30.52-87.527-56.89,18.607,0.33,36.729-1.16,43.763-13.13-10.146-20.76,21.916-45.08,30.635-61.27-10.168-10.55-17.71-27.64-21.882-43.76h4.377c22.229,25.19,89.883,33.1,109.409,56.89,9.391,11.45-9.136,9.42,13.129,21.88-3.662,8.18-6.04,11.66-8.753,21.88H577.68c-2.091-15.86-1.145-15.93-13.129-21.88v4.38a87.084,87.084,0,0,0-26.258,26.26c18.155-.86,28.124-2.64,35.011,8.75a69.577,69.577,0,0,0-21.882,21.88c-6.9-4.55-17.826-20.26-21.882-13.13-7.306,7.85-10.289,18.03-13.129,30.63h35.011Zm866.518,0h35.01c-2.11-16.74-7.2-22.85-13.13-35.01-7.15,4.87-22.38,24.56-26.25,17.51-8.78-6.11-9.04-5.89-13.13-17.51-3.29-4.69-2.63-4.13-4.38-13.12h35.01v-8.76a87.081,87.081,0,0,1-26.26-26.25h-4.37v4.37c-9.43,12-3.33,16.98-21.88,21.88q-6.57-8.745-13.13-17.5,13.125-6.57,26.25-13.13-2.175-6.555-4.37-13.13c9.45-11.34,95.1-47.81,113.78-52.51v4.38c-10.16,10.55-17.71,27.64-21.88,43.76,25.36,6.53,34.66,38.92,30.64,61.26,16.36,0,34.01,1.67,43.76,8.75h-4.38c-20.36,20.75-61.32,44.23-91.9,52.52-3.62-14.2,2.14-6.69-8.75-13.13-4.35,7.08-17.06,24.87-21.88,17.5C1418.22,1268.9,1419.4,1269.9,1417.94,1254.31Zm-83.15-148.78h21.88c4.65,8.35,10.84,19.53,17.51,26.25-2.76,7.68-.84,4.25-4.38,8.75-6.67,6.91-11.13,9.7-21.88,13.13v-8.75C1340.16,1135.25,1336.68,1120.96,1334.79,1105.53Zm-542.668,61.26c44.459,1.03,76.72,30.5,91.9,61.27,3.52-4.47,1.553-1.2,4.376-8.76,6.348-10.01,2.271-19.49,13.13-26.25,36.349,33.75,66.455,40.17,87.527,91.9,16.171-17.27,23.081-39.42,48.141-48.14,17.87,28.24,43.67,31.97,91.9,30.63,14.96-14.06,40.43-18.17,52.52-35.01,10.72-14.93,11.14-37.53,21.88-52.51,6.98,9.85,7.17,9.18,13.13,8.75,28.18-30.58,39.43-67.36,91.9-74.39,11.9,33.83,24.88,62.23,39.39,91.9h-8.75c-7.96-7.61-20.16-12.57-30.64-17.51v13.13c8.56,11.38,6.72,24.29,13.13,39.38,16.15,38.03,48,74.34,61.27,113.78h-4.37q-24.075-8.745-48.14-17.5v56.89c11.85,16.67,18.87,51.63,21.88,74.39-41.14-14.9-67.65,11.96-96.28,21.88v-8.75c17.19-18.51,22.07-52.01,21.88-87.52h-4.38c-17.17,134.47-244.02,238.49-415.752,175.04-58.027-21.44-122.517-64.44-153.173-113.78-11.663-18.77-13.156-44-26.258-61.26v35.01c9.9,14.13,17.536,44.78,21.882,61.26h-4.377c-20.584-20.48-55.8-29.4-91.9-21.88v-8.75c20.518-26.28,26.345-77.96,26.258-122.53h-8.753c-10.016,9.24-25.356,12.13-43.764,13.13v-4.38c29.575-31.14,65.114-102.41,70.022-153.16h-8.753c-8.421,8.21-15.421,11-30.634,13.13v-4.38c17.729-18.41,32.2-81.84,48.14-91.9,29.683,37.62,74.271,25.4,109.409,48.14,11.179,7.23,15.979,24.86,21.882,26.26C791.259,1179.13,791.129,1176.94,792.122,1166.79Zm-210.065,74.39c11.127,6.37,4.936-.95,8.752,13.13-8.63,11.88-13.922,32.54-17.5,48.14h-4.376v-35.01C574.3,1260.77,578.37,1249.16,582.057,1241.18Zm783.373,0h21.88q2.19,6.57,4.37,13.13c9.34,11.67,9.28,30.44,8.76,52.52h-4.38v4.37h-8.75C1383.62,1284.62,1369.95,1268.52,1365.43,1241.18ZM962.8,1346.21l-39.388,91.9c19.79-1.15,40.556-3.59,48.14,8.75-9.829,12.75-13.817,39.09-17.5,56.89h4.376c21.9-33.74,64.806-61.97,78.776-100.65-19.24,1.1-36.43,3.25-43.765-8.75,11.365-12.08,18.915-32.58,26.255-48.14H962.8ZM792.122,1670.04H778.993v-30.63c-9.983-5.36-9.85-7.17-26.258-8.75-7.473,11.92-11.1,10.93-13.129,30.63H726.477c2.633-18.61,7.472-21.91,8.753-43.76-9.984-5.36-9.851-7.17-26.259-8.75-5.174,7.99-9.592,12.25-17.5,17.5v-8.75c-15.538-18.12-10.759-85.58,8.753-96.28,13.4,12.23,32.834,15.59,48.14,26.26,20.122,14.03,39.586,35.02,61.269,48.14,16.044,9.71,35.3,9.66,48.14,21.88q-10.939,15.315-21.882,30.63H831.51c-5.193-16.82-9.676-20.33-30.635-21.88-3.8,5.21-3.6,4.92-8.753,8.75v35.01Zm468.268-144.41c2.69,33.25,21.34,83.68-8.75,100.65-5.2-15.74-6.61-16.01-26.26-17.5-6,11.12-8.39,15.33-8.75,35,5.52,5.95,5.98,7.74,8.75,17.51h-13.13q-2.19-10.935-4.37-21.88c-10.58-5.7-12.4-7.88-30.64-8.75q-2.19,6.555-4.37,13.12c-6.13,9.21-3.29,16.71,0,26.26h-13.13v-35.01c-10.58-5.7-12.4-7.88-30.64-8.75-3.44,6.38-8.3,16.32-13.13,21.88q-10.935-13.125-21.88-26.26v-8.75C1164.3,1597.8,1194.02,1537.17,1260.39,1525.63Z"/>
</svg>
